HIERARCHY
ROOT Pelvis
{
	OFFSET 0.000000 0.000000 0.000000
	CHANNELS 6 Xposition Yposition Zposition Xrotation Yrotation Zrotation
	JOINT LeftUpLeg_virtual
	{
		OFFSET 0.000000 0.000000 0.000000
		CHANNELS 3 Xrotation Yrotation Zrotation
		JOINT LeftUpLeg
		{
			OFFSET 18.735201 -5.666702 -4.541200
			CHANNELS 3 Xrotation Yrotation Zrotation
			JOINT LeftLeg
			{
				OFFSET -0.021200 -31.938179 0.493100
				CHANNELS 3 Xrotation Yrotation Zrotation
				JOINT LeftFoot
				{
					OFFSET 0.021200 -31.938179 -4.336299
					CHANNELS 3 Xrotation Yrotation Zrotation
					JOINT LeftToeBase
					{
						OFFSET 0.943001 -26.722000 15.023500
						CHANNELS 3 Xrotation Yrotation Zrotation
						End Site
						{
							OFFSET 0 0 0
						}
					}
				}
			}
		}
	}
	JOINT RightUpLeg_virtual
	{
		OFFSET 0.000000 0.000000 0.000000
		CHANNELS 3 Xrotation Yrotation Zrotation
		JOINT RightUpLeg
		{
			OFFSET -18.735201 -5.666702 -4.541200
			CHANNELS 3 Xrotation Yrotation Zrotation
			JOINT RightLeg
			{
				OFFSET 0.018946 -31.938133 0.493100
				CHANNELS 3 Xrotation Yrotation Zrotation
				JOINT RightFoot
				{
					OFFSET -0.018946 -31.938126 -4.336299
					CHANNELS 3 Xrotation Yrotation Zrotation
					JOINT RightToeBase
					{
						OFFSET -0.943001 -26.722004 15.023500
						CHANNELS 3 Xrotation Yrotation Zrotation
						End Site
						{
							OFFSET 0 0 0
						}
					}
				}
			}
		}
	}
	JOINT Hips_virtual
	{
		OFFSET 0.000000 0.000000 0.000000
		CHANNELS 3 Xrotation Yrotation Zrotation
		JOINT Hips
		{
			OFFSET -0.000000 -0.000000 -0.000000
			CHANNELS 3 Xrotation Yrotation Zrotation
			JOINT Spine
			{
				OFFSET 0.000000 10.199997 -0.299500
				CHANNELS 3 Xrotation Yrotation Zrotation
				JOINT Spine1
				{
					OFFSET 0.000000 11.900002 -1.516600
					CHANNELS 3 Xrotation Yrotation Zrotation
					JOINT Spine2
					{
						OFFSET 0.000000 13.600006 -2.842500
						CHANNELS 3 Xrotation Yrotation Zrotation
						JOINT Neck_virtual
						{
							OFFSET 0.000000 0.000000 0.000000
							CHANNELS 3 Xrotation Yrotation Zrotation
							JOINT Neck
							{
								OFFSET 0.000000 9.624100 -2.890100
								CHANNELS 3 Xrotation Yrotation Zrotation
								JOINT Head
								{
									OFFSET 0.000000 14.068802 -1.351900
									CHANNELS 3 Xrotation Yrotation Zrotation
									End Site
									{
										OFFSET 0 0 0
									}
								}
							}
						}
						JOINT LeftShoulder_virtual
						{
							OFFSET 0.000000 0.000000 0.000000
							CHANNELS 3 Xrotation Yrotation Zrotation
							JOINT LeftShoulder
							{
								OFFSET 15.263000 10.923401 -0.547700
								CHANNELS 3 Xrotation Yrotation Zrotation
								JOINT LeftArm
								{
									OFFSET 25.438599 -2.830597 -13.032500
									CHANNELS 3 Xrotation Yrotation Zrotation
									JOINT LeftForeArm
									{
										OFFSET 29.960503 0.000000 0.000000
										CHANNELS 3 Xrotation Yrotation Zrotation
										JOINT LeftHand
										{
											OFFSET 27.849251 0.000000 0.000000
											CHANNELS 3 Xrotation Yrotation Zrotation
											End Site
											{
												OFFSET 0 0 0
											}
										}
									}
								}
							}
						}
						JOINT RightShoulder_virtual
						{
							OFFSET 0.000000 0.000000 0.000000
							CHANNELS 3 Xrotation Yrotation Zrotation
							JOINT RightShoulder
							{
								OFFSET -15.263000 10.923401 -0.547700
								CHANNELS 3 Xrotation Yrotation Zrotation
								JOINT RightArm
								{
									OFFSET -25.438599 -2.830597 -13.032500
									CHANNELS 3 Xrotation Yrotation Zrotation
									JOINT RightForeArm
									{
										OFFSET -29.960503 0.000000 0.000000
										CHANNELS 3 Xrotation Yrotation Zrotation
										JOINT RightHand
										{
											OFFSET -27.849251 0.000000 0.000000
											CHANNELS 3 Xrotation Yrotation Zrotation
											End Site
											{
												OFFSET 0 0 0
											}
										}
									}
								}
							}
						}
					}
				}
			}
		}
	}
}
MOTION
Frames: 13
Frame Time: 0.03333333
-2.373680 92.416054 -50.088760 0.000000 0.000000 0.000000 178.287554 -60.201281 179.413688 -26.245856 12.002455 21.823575 35.916082 -4.281136 -1.816329 -7.107459 0.322655 -3.904597 0.000000 0.000000 0.000000 178.504317 -60.718360 179.003385 -6.341574 -15.091993 11.345573 21.461515 7.896375 2.444589 -12.232597 4.940045 -13.437245 0.000000 0.000000 0.000000 175.785847 -62.280759 176.646191 -0.426436 0.748963 -1.117588 3.734226 1.750119 3.471486 -4.585846 0.774965 -2.185433 0.000000 0.000000 0.000000 -6.002479 2.207285 -3.179139 0.868716 4.530088 1.691575 0.000000 0.000000 0.000000 -5.476205 2.254186 -3.213381 1.527243 -0.223027 1.233848 8.680703 -5.805793 -66.889887 9.469977 -20.505410 -8.989723 0.000000 0.000000 0.000000 -5.470006 2.201736 -2.953129 3.530130 -4.703944 9.867935 14.114014 27.272607 59.760610 11.413361 32.563104 -0.813201 0.000000 0.000000 0.000000 
-2.729238 92.642899 -52.022430 0.000000 0.000000 0.000000 178.041967 -55.166256 179.763749 -26.989313 6.593816 17.227684 36.717724 -6.201171 -1.703482 -6.220448 0.529409 -5.600909 0.000000 0.000000 0.000000 178.720793 -55.582000 179.762847 -5.378078 -12.889762 11.769349 19.797619 11.218641 2.631582 -10.346719 4.190977 -17.675572 0.000000 0.000000 0.000000 176.268031 -57.489443 177.833250 -0.428804 0.421492 -1.118118 3.927193 2.188153 3.311604 -4.321118 1.308056 -2.342124 0.000000 0.000000 0.000000 -5.746485 2.661404 -3.275414 0.908342 4.143811 1.673826 0.000000 0.000000 0.000000 -5.257175 2.681296 -3.384884 1.474631 -0.005943 1.141568 10.066288 -6.667542 -66.976596 10.426133 -19.015414 -9.272207 0.000000 0.000000 0.000000 -5.229262 2.667502 -3.033100 3.508433 -4.400811 10.329544 12.166192 28.202703 60.441983 11.835897 33.209923 -1.588413 0.000000 0.000000 0.000000 
-3.167819 92.970642 -53.873672 0.000000 0.000000 0.000000 177.489555 -50.290819 179.623334 -28.203842 1.716241 12.903160 35.152262 -8.109721 -1.705913 -4.603086 0.656464 -8.535085 0.000000 0.000000 0.000000 178.588751 -50.720158 -179.852391 -4.344929 -10.294132 11.891574 17.960023 14.874323 2.801739 -7.128770 3.108132 -21.117089 0.000000 0.000000 0.000000 176.440698 -52.685894 178.672025 -0.567528 0.443464 -1.060836 4.179457 2.648411 2.904249 -4.012366 1.800966 -2.263738 0.000000 0.000000 0.000000 -5.429442 3.068551 -3.168850 0.911837 3.669088 1.599035 0.000000 0.000000 0.000000 -4.964036 3.072856 -3.309390 1.438173 0.067087 1.053760 10.921175 -7.442579 -67.417314 11.221491 -17.063220 -9.563814 0.000000 0.000000 0.000000 -4.940165 3.086748 -2.883541 3.458661 -3.950179 11.012719 9.888847 29.405143 60.712110 12.172899 33.252271 -2.293411 0.000000 0.000000 0.000000 
-3.671504 93.263161 -55.766083 0.000000 0.000000 0.000000 177.094784 -45.640349 179.400014 -29.971628 -2.256906 9.358018 31.670634 -9.730478 -1.886726 -1.788783 0.663161 -12.148466 0.000000 0.000000 0.000000 178.362863 -46.119333 -179.745867 -3.728430 -7.683607 11.607725 17.192525 18.768141 3.227356 -3.898596 1.881484 -23.469619 0.000000 0.000000 0.000000 176.563354 -47.875350 179.278040 -0.666481 0.931129 -0.891335 4.539103 3.108822 2.286756 -3.706390 2.214429 -1.981910 0.000000 0.000000 0.000000 -5.075857 3.389622 -2.883196 0.914242 3.127283 1.473210 0.000000 0.000000 0.000000 -4.652709 3.397431 -3.004445 1.390825 0.150134 0.928694 11.032128 -7.530946 -68.608226 11.803976 -15.148752 -9.788984 0.000000 0.000000 0.000000 -4.649394 3.417884 -2.547989 3.374315 -3.478982 11.772942 7.650091 31.017706 60.426704 12.329209 32.789279 -2.893990 0.000000 0.000000 0.000000 
-4.235818 93.330559 -57.562202 0.000000 0.000000 0.000000 177.157417 -41.182042 179.438618 -32.167049 -5.172345 6.641920 27.627658 -10.873636 -2.003587 2.144477 0.690419 -15.591707 0.000000 0.000000 0.000000 178.427736 -41.628282 -179.557600 -3.830747 -5.614599 11.025266 18.462397 22.574585 3.979037 -2.334644 0.863203 -24.866005 0.000000 0.000000 0.000000 176.844949 -43.068625 179.768776 -0.710461 1.397626 -0.745745 4.935674 3.493874 1.569446 -3.379199 2.496672 -1.589847 0.000000 0.000000 0.000000 -4.728861 3.594496 -2.491979 0.938226 2.541171 1.321612 0.000000 0.000000 0.000000 -4.323260 3.620268 -2.561155 1.340093 0.332118 0.668106 10.534420 -6.660105 -70.478857 12.170402 -13.722784 -9.842158 0.000000 0.000000 0.000000 -4.364887 3.601400 -2.124769 3.302000 -3.102128 12.419145 5.869028 33.108205 59.751711 12.294661 32.110249 -3.348456 0.000000 0.000000 0.000000 
-4.832000 93.086327 -59.454285 0.000000 0.000000 0.000000 177.709105 -36.657455 179.883045 -34.213606 -6.990842 4.672322 24.069069 -11.551043 -1.820067 5.849170 0.788856 -18.329354 0.000000 0.000000 0.000000 178.831032 -36.987684 -179.175888 -4.102828 -4.343877 10.329751 21.067995 26.097369 5.029499 -2.741465 0.156755 -25.309852 0.000000 0.000000 0.000000 177.423521 -38.181198 -179.716798 -0.787899 2.013876 -0.661971 5.322533 3.750237 0.824111 -2.977433 2.626711 -1.191161 0.000000 0.000000 0.000000 -4.384192 3.643112 -2.082855 0.995757 1.935294 1.173113 0.000000 0.000000 0.000000 -3.962731 3.697846 -2.091052 1.281334 0.632780 0.208588 9.840960 -5.028102 -72.594406 12.403803 -12.972078 -9.756095 0.000000 0.000000 0.000000 -4.055732 3.614035 -1.717903 3.252431 -2.912741 12.866964 4.821567 35.561971 59.084066 12.145587 31.611796 -3.764168 0.000000 0.000000 0.000000 
-5.434378 92.729546 -61.733864 0.000000 0.000000 0.000000 178.499399 -32.077232 -179.351041 -35.598587 -7.917939 3.321722 21.202914 -11.898203 -1.309393 7.546502 0.962723 -20.375516 0.000000 0.000000 0.000000 179.524159 -32.051455 -178.772074 -3.851834 -3.608926 9.655894 23.424419 29.395034 6.200721 -5.337259 0.053281 -24.923195 0.000000 0.000000 0.000000 178.165539 -33.310512 -179.222265 -0.600358 2.336208 -0.800874 5.627760 3.894294 0.105800 -2.514856 2.601857 -0.884064 0.000000 0.000000 0.000000 -4.041164 3.535883 -1.717231 1.073947 1.350031 1.053492 0.000000 0.000000 0.000000 -3.549450 3.609560 -1.691489 1.221831 0.995558 -0.463570 9.662897 -3.394682 -74.295123 12.581715 -13.019336 -9.553448 0.000000 0.000000 0.000000 -3.683957 3.460870 -1.412822 3.229504 -2.888824 13.149156 4.480444 38.198441 58.776920 11.957655 31.451143 -4.224198 0.000000 0.000000 0.000000 
-5.999027 92.355133 -64.286667 0.000000 0.000000 0.000000 179.203031 -27.196632 -178.601100 -36.187227 -8.093931 2.358614 19.333083 -11.996514 -0.624019 6.832552 1.265426 -21.684490 0.000000 0.000000 0.000000 -179.621968 -26.852378 -178.414377 -3.031605 -3.247397 8.884268 24.649167 32.475364 7.426186 -8.403933 0.410411 -23.708782 0.000000 0.000000 0.000000 178.882094 -28.339437 -178.846618 -0.596634 2.166630 -0.753518 5.848762 3.963804 -0.490485 -1.955903 2.471628 -0.696332 0.000000 0.000000 0.000000 -3.647190 3.305992 -1.436722 1.161372 0.805039 0.978938 0.000000 0.000000 0.000000 -3.073270 3.380099 -1.394020 1.184146 1.319852 -1.259330 10.330477 -2.492514 -74.972767 12.727625 -13.519925 -9.327397 0.000000 0.000000 0.000000 -3.255029 3.185486 -1.232531 3.234476 -2.942440 13.309723 4.548100 40.647986 59.032990 11.839973 31.643057 -4.778549 0.000000 0.000000 0.000000 
-6.589561 92.081909 -67.097412 0.000000 0.000000 0.000000 179.581615 -22.409564 -178.128697 -36.261051 -7.232612 1.796481 18.436578 -11.450325 -0.022854 4.533854 1.811490 -21.997860 0.000000 0.000000 0.000000 -178.978755 -21.796626 -178.329955 -1.741776 -2.797417 8.072903 24.854672 35.249326 8.344503 -9.283262 0.441611 -21.997447 0.000000 0.000000 0.000000 179.292493 -23.492016 -178.709250 -0.402774 2.089072 -0.830561 6.056796 4.055468 -0.988092 -1.362307 2.287379 -0.617370 0.000000 0.000000 0.000000 -3.236903 3.016455 -1.245691 1.251303 0.311780 0.956892 0.000000 0.000000 0.000000 -2.650790 3.081189 -1.207385 1.160837 1.520647 -2.043348 11.677460 -2.641690 -74.594135 12.863394 -13.993543 -9.165217 0.000000 0.000000 0.000000 -2.820095 2.877534 -1.156890 3.249963 -2.933944 13.390033 4.724251 42.516650 59.587390 11.825717 32.009026 -5.400285 0.000000 0.000000 0.000000 
-7.297241 91.991730 -69.974876 0.000000 0.000000 0.000000 179.459874 -18.205731 -178.141306 -36.422657 -5.490295 1.492727 18.382182 -10.211079 0.406970 1.372568 2.606833 -21.154890 0.000000 0.000000 0.000000 -178.764601 -17.400730 -178.600171 -0.918757 -1.890638 7.555044 25.069839 37.413809 8.369622 -7.801253 -0.232128 -20.899177 0.000000 0.000000 0.000000 179.260104 -19.070062 -178.909251 -0.117501 1.671000 -0.861906 6.253224 4.185640 -1.447487 -0.834593 2.114463 -0.615257 0.000000 0.000000 0.000000 -2.879553 2.735374 -1.127541 1.335318 -0.112159 0.971499 0.000000 0.000000 0.000000 -2.353612 2.794195 -1.107963 1.159487 1.587495 -2.699558 13.195683 -3.661434 -73.296440 12.939454 -14.277389 -9.075518 0.000000 0.000000 0.000000 -2.455919 2.594495 -1.127394 3.282454 -2.725761 13.370891 4.907847 43.472095 60.021189 11.904735 32.225464 -5.952813 0.000000 0.000000 0.000000 
-8.027252 91.977707 -72.717033 0.000000 0.000000 0.000000 179.003125 -14.947562 -178.717377 -36.753070 -3.706147 0.906778 19.114511 -8.669787 0.906352 -2.136679 3.254916 -19.212378 0.000000 0.000000 0.000000 -179.168402 -14.082446 -179.088967 -1.177419 -0.589201 7.474807 25.763149 38.467270 7.599849 -5.417295 -1.909152 -21.186781 0.000000 0.000000 0.000000 178.878911 -15.328360 -179.310033 -0.058899 1.434329 -0.694291 6.488150 4.200107 -1.869530 -0.430063 1.975999 -0.637480 0.000000 0.000000 0.000000 -2.607636 2.504940 -1.059182 1.425063 -0.469648 1.012525 0.000000 0.000000 0.000000 -2.258797 2.553669 -1.067375 1.191378 1.507874 -3.135121 14.214809 -4.912972 -71.525625 12.966775 -14.230831 -9.051911 0.000000 0.000000 0.000000 -2.239373 2.385228 -1.075046 3.301490 -2.376399 13.186068 5.091558 43.327168 60.183638 12.024390 32.157296 -6.297369 0.000000 0.000000 0.000000 
-8.790535 91.999481 -75.499763 0.000000 0.000000 0.000000 178.442599 -12.917501 -179.694176 -37.082384 -2.358970 -0.194052 20.406905 -7.104981 1.520450 -5.279906 3.206393 -16.793617 0.000000 0.000000 0.000000 179.940255 -11.690497 -179.664725 -2.019952 0.990174 7.932614 26.903268 38.360955 6.378504 -4.542336 -4.170749 -22.701271 0.000000 0.000000 0.000000 178.316978 -12.575451 -179.851080 0.117405 0.773438 -0.896001 6.842166 4.006606 -2.358148 -0.219457 1.839525 -0.625811 0.000000 0.000000 0.000000 -2.490936 2.329678 -0.984414 1.507762 -0.754364 1.061323 0.000000 0.000000 0.000000 -2.387241 2.359012 -1.068874 1.246602 1.274455 -3.320358 14.263290 -5.954807 -69.802908 12.981900 -14.109055 -9.045923 0.000000 0.000000 0.000000 -2.199407 2.236272 -0.955651 3.285942 -1.991475 12.715024 5.439850 42.272208 60.015520 12.130235 31.822288 -6.364527 0.000000 0.000000 0.000000 
-9.469160 91.992821 -77.992058 0.000000 0.000000 0.000000 177.951290 -11.336535 179.143964 -36.891119 -1.499910 -1.541801 21.988011 -5.975170 2.177255 -7.011068 2.058790 -14.665536 0.000000 0.000000 0.000000 178.929141 -9.861080 179.821341 -3.311195 2.499700 8.733175 28.656902 37.755868 5.201367 -4.803847 -6.023715 -23.604546 0.000000 0.000000 0.000000 177.831775 -10.517603 179.631025 -0.663138 0.089060 -0.911867 7.370478 3.559651 -2.992024 -0.213727 1.697677 -0.530971 0.000000 0.000000 0.000000 -2.480313 2.175633 -0.849259 1.570885 -0.968702 1.102404 0.000000 0.000000 0.000000 -2.593286 2.159392 -1.055051 1.373033 1.013193 -3.289394 13.517727 -6.691713 -68.342941 13.024355 -14.222439 -9.030180 0.000000 0.000000 0.000000 -2.288617 2.093427 -0.741330 3.251058 -1.649943 11.973247 6.091807 40.620890 59.896675 12.223141 31.420571 -6.199963 0.000000 0.000000 0.000000 
